<mxfile host="app.diagrams.net" modified="2024-08-06T13:01:18.866Z" agent="Mozilla/5.0 (Macintosh; Intel Mac OS X 10_15_7) AppleWebKit/537.36 (KHTML, like Gecko) Chrome/127.0.0.0 Safari/537.36" etag="SMw1gVABOdbHb4xL4Wt8" version="24.6.5" type="device">
  <diagram name="Page-1" id="bDBSMM_U5Odbe-mlCb5Z">
    <mxGraphModel dx="754" dy="834" grid="1" gridSize="10" guides="1" tooltips="1" connect="1" arrows="1" fold="1" page="1" pageScale="1" pageWidth="827" pageHeight="1169" math="0" shadow="0">
      <root>
        <mxCell id="0" />
        <mxCell id="1" parent="0" />
        <mxCell id="ftDg6omauAznXFmt9yRm-1" value="CoPilot Usage Dashboard" style="rounded=0;whiteSpace=wrap;html=1;align=left;verticalAlign=top;" vertex="1" parent="1">
          <mxGeometry x="40" y="40" width="710" height="560" as="geometry" />
        </mxCell>
        <mxCell id="ftDg6omauAznXFmt9yRm-22" value="Get Historic&lt;div&gt;Data&lt;/div&gt;" style="edgeStyle=orthogonalEdgeStyle;rounded=0;orthogonalLoop=1;jettySize=auto;html=1;" edge="1" parent="1" source="ftDg6omauAznXFmt9yRm-3" target="ftDg6omauAznXFmt9yRm-11">
          <mxGeometry relative="1" as="geometry" />
        </mxCell>
        <mxCell id="ftDg6omauAznXFmt9yRm-33" value="Display Data to&lt;div&gt;User&lt;/div&gt;" style="edgeStyle=orthogonalEdgeStyle;rounded=0;orthogonalLoop=1;jettySize=auto;html=1;" edge="1" parent="1" source="ftDg6omauAznXFmt9yRm-3" target="ftDg6omauAznXFmt9yRm-30">
          <mxGeometry relative="1" as="geometry" />
        </mxCell>
        <mxCell id="ftDg6omauAznXFmt9yRm-3" value="Dashboard" style="rounded=1;whiteSpace=wrap;html=1;verticalAlign=top;spacingTop=25;" vertex="1" parent="1">
          <mxGeometry x="280" y="200" width="160" height="160" as="geometry" />
        </mxCell>
        <mxCell id="ftDg6omauAznXFmt9yRm-4" value="GitHub API Toolkit&lt;div&gt;(Imported)&lt;/div&gt;" style="rounded=1;whiteSpace=wrap;html=1;fillColor=#f8cecc;strokeColor=#b85450;" vertex="1" parent="1">
          <mxGeometry x="300" y="290" width="120" height="60" as="geometry" />
        </mxCell>
        <mxCell id="ftDg6omauAznXFmt9yRm-5" value="GitHub API" style="ellipse;shape=cloud;whiteSpace=wrap;html=1;fillColor=#d5e8d4;strokeColor=#82b366;" vertex="1" parent="1">
          <mxGeometry x="300" y="480" width="120" height="80" as="geometry" />
        </mxCell>
        <mxCell id="ftDg6omauAznXFmt9yRm-11" value="S3&lt;div&gt;Bucket&lt;/div&gt;" style="ellipse;shape=cloud;whiteSpace=wrap;html=1;fillColor=#ffe6cc;strokeColor=#d79b00;" vertex="1" parent="1">
          <mxGeometry x="560" y="240" width="120" height="80" as="geometry" />
        </mxCell>
        <mxCell id="ftDg6omauAznXFmt9yRm-24" value="Push Update&lt;div&gt;to S3&lt;/div&gt;" style="edgeStyle=orthogonalEdgeStyle;rounded=0;orthogonalLoop=1;jettySize=auto;html=1;" edge="1" parent="1" source="ftDg6omauAznXFmt9yRm-19" target="ftDg6omauAznXFmt9yRm-11">
          <mxGeometry relative="1" as="geometry" />
        </mxCell>
        <mxCell id="ftDg6omauAznXFmt9yRm-19" value="Lambda Function" style="rounded=1;whiteSpace=wrap;html=1;verticalAlign=top;spacingTop=25;" vertex="1" parent="1">
          <mxGeometry x="540" y="400" width="160" height="160" as="geometry" />
        </mxCell>
        <mxCell id="ftDg6omauAznXFmt9yRm-20" value="GitHub API Toolkit&lt;div&gt;(Imported)&lt;/div&gt;" style="rounded=1;whiteSpace=wrap;html=1;fillColor=#f8cecc;strokeColor=#b85450;" vertex="1" parent="1">
          <mxGeometry x="560" y="490" width="120" height="60" as="geometry" />
        </mxCell>
        <mxCell id="ftDg6omauAznXFmt9yRm-25" value="" style="shape=cylinder3;whiteSpace=wrap;html=1;boundedLbl=1;backgroundOutline=1;size=15;fillColor=#dae8fc;strokeColor=#6c8ebf;" vertex="1" parent="1">
          <mxGeometry x="80" y="240" width="80" height="80" as="geometry" />
        </mxCell>
        <mxCell id="ftDg6omauAznXFmt9yRm-26" value="Get API Response&lt;div&gt;to Update&lt;/div&gt;&lt;div&gt;Historic Data&lt;/div&gt;" style="edgeStyle=orthogonalEdgeStyle;rounded=0;orthogonalLoop=1;jettySize=auto;html=1;exitX=0;exitY=0.5;exitDx=0;exitDy=0;entryX=0.875;entryY=0.5;entryDx=0;entryDy=0;entryPerimeter=0;" edge="1" parent="1" source="ftDg6omauAznXFmt9yRm-20" target="ftDg6omauAznXFmt9yRm-5">
          <mxGeometry relative="1" as="geometry" />
        </mxCell>
        <mxCell id="ftDg6omauAznXFmt9yRm-28" value="Get Live Data" style="edgeStyle=orthogonalEdgeStyle;rounded=0;orthogonalLoop=1;jettySize=auto;html=1;exitX=0.5;exitY=1;exitDx=0;exitDy=0;entryX=0.5;entryY=0.075;entryDx=0;entryDy=0;entryPerimeter=0;" edge="1" parent="1" source="ftDg6omauAznXFmt9yRm-4" target="ftDg6omauAznXFmt9yRm-5">
          <mxGeometry relative="1" as="geometry" />
        </mxCell>
        <mxCell id="ftDg6omauAznXFmt9yRm-29" value="Get Example&lt;div&gt;Dataset&lt;/div&gt;" style="edgeStyle=orthogonalEdgeStyle;rounded=0;orthogonalLoop=1;jettySize=auto;html=1;exitX=0;exitY=0.5;exitDx=0;exitDy=0;entryX=1;entryY=0.5;entryDx=0;entryDy=0;entryPerimeter=0;" edge="1" parent="1" source="ftDg6omauAznXFmt9yRm-3" target="ftDg6omauAznXFmt9yRm-25">
          <mxGeometry relative="1" as="geometry" />
        </mxCell>
        <mxCell id="ftDg6omauAznXFmt9yRm-30" value="User" style="shape=umlActor;verticalLabelPosition=top;verticalAlign=bottom;html=1;outlineConnect=0;labelPosition=center;align=center;" vertex="1" parent="1">
          <mxGeometry x="345" y="80" width="30" height="60" as="geometry" />
        </mxCell>
      </root>
    </mxGraphModel>
  </diagram>
</mxfile>
